<svg xmlns="http://www.w3.org/2000/svg" width="1280" height="310" viewBox="0 0 1280 310" role="img" aria-labelledby="title desc">
<title id="title">Alejandro Domínguez</title>
<desc id="desc">Economics, Mathematics and Data Science.</desc>

<defs>
  <linearGradient id="sky" x2="0" y2="1"><stop stop-color="#111628"/><stop offset="1" stop-color="#4A3D61"/></linearGradient>
  <linearGradient id="shade"><stop stop-color="#121728" stop-opacity=".8"/><stop offset=".73" stop-color="#121728" stop-opacity=".45"/><stop offset="1" stop-color="#121728" stop-opacity="0"/></linearGradient>
  <radialGradient id="glow" cx=".86" cy="1" r=".65"><stop stop-color="#B89289" stop-opacity=".2"/><stop offset="1" stop-color="#B89289" stop-opacity="0"/></radialGradient>
</defs>
<rect width="1280" height="310" fill="url(#sky)"/>
<rect width="1280" height="310" fill="url(#glow)"/>
<circle cx="890" cy="44" r="0.8" fill="#D0CBDC" opacity="0.7"/><circle cx="951" cy="27" r="0.7" fill="#D0CBDC" opacity="0.5"/><circle cx="1160" cy="52" r="0.9" fill="#D0CBDC" opacity="0.5"/><circle cx="1231" cy="91" r="0.7" fill="#D0CBDC" opacity="0.6"/><circle cx="824" cy="61" r="0.7" fill="#D0CBDC" opacity="0.4"/><circle cx="975" cy="83" r="0.9" fill="#D0CBDC" opacity="0.6"/><circle cx="1193" cy="31" r="0.6" fill="#D0CBDC" opacity="0.5"/>
<path d="M0 255C178 234 295 258 431 243S639 229 769 245S1005 261 1280 230V310H0Z" fill="#323349"/>
<path d="M0 274C205 249 274 283 439 269S711 281 923 259S1171 264 1280 256V310H0Z" fill="#1B2435"/>
<path d="M0 297C277 280 538 308 826 290S1122 277 1280 281V310H0Z" fill="#111A28"/>
<circle cx="1054" cy="59" r="13" fill="#E2DCCF"/>
<circle cx="1060" cy="54" r="12" fill="#212035"/>
<g fill="#101825">
  <path d="M1102 310Q1078 234 1095 126L1101 126Q1092 226 1115 310Z"/>
  <g transform="translate(1098 126) scale(.88)">
<path d="M0 0C-16-34-62-40-97-17C-53-25-27-11 0 0Z"/>
<path d="M0 0C-46-5-84 19-100 64C-72 28-36 16 0 0Z"/>
<path d="M0 0C-19 16-34 51-25 85C-19 48-10 23 0 0Z"/>
<path d="M0 0C-13-29-6-60 16-78C1-43 2-22 0 0Z"/>
<path d="M0 0C14-42 58-62 92-47C51-45 20-21 0 0Z"/>
<path d="M0 0C40-14 80 4 101 41C63 13 32 10 0 0Z"/>
<path d="M0 0C34 19 52 56 44 86C36 52 17 24 0 0Z"/>
</g>
  <path d="M1227 310Q1200 235 1213 183L1219 182Q1210 242 1240 310Z"/>
  <g transform="translate(1216 182) scale(.61)">
<path d="M0 0C-16-34-62-40-97-17C-53-25-27-11 0 0Z"/>
<path d="M0 0C-46-5-84 19-100 64C-72 28-36 16 0 0Z"/>
<path d="M0 0C-19 16-34 51-25 85C-19 48-10 23 0 0Z"/>
<path d="M0 0C-13-29-6-60 16-78C1-43 2-22 0 0Z"/>
<path d="M0 0C14-42 58-62 92-47C51-45 20-21 0 0Z"/>
<path d="M0 0C40-14 80 4 101 41C63 13 32 10 0 0Z"/>
<path d="M0 0C34 19 52 56 44 86C36 52 17 24 0 0Z"/>
</g>
</g>
<rect width="1280" height="310" fill="url(#shade)"/>
<text x="65" y="57" fill="#BFC2D4" font-family="'DejaVu Sans Mono', 'Courier New', monospace" font-size="17" letter-spacing="1.3">alexdmngz</text>
<text x="60" y="164" fill="#F3EFE6" font-family="Georgia, 'DejaVu Serif', serif" font-size="70" letter-spacing="-2.5">Alejandro Domínguez</text>
<text x="65" y="220" fill="#D2D1DB" font-family="Arial, 'DejaVu Sans', sans-serif" font-size="22">Economics · Mathematics · Data Science</text>

</svg>